<svg width="140" height="140" viewBox="0 0 140 140" fill="none" xmlns="http://www.w3.org/2000/svg">
<path opacity="0.5" d="M55.9553 18.6688C54.5349 19.8793 53.8246 20.4846 53.066 20.993C51.3271 22.1585 49.3742 22.9674 47.3204 23.3729C46.4245 23.5498 45.4942 23.624 43.6336 23.7725C38.9589 24.1455 36.6215 24.332 34.6715 25.0208C30.1612 26.6139 26.6134 30.1616 25.0204 34.672C24.3316 36.622 24.1451 38.9594 23.772 43.6341C23.6236 45.4946 23.5493 46.425 23.3724 47.3209C22.9669 49.3747 22.158 51.3276 20.9925 53.0665C20.4841 53.8251 19.8787 54.5354 18.6682 55.9559C15.6264 59.5254 14.1054 61.3098 13.2136 63.1759C11.1508 67.492 11.1508 72.5087 13.2136 76.8248C14.1055 78.6908 15.6264 80.4753 18.6681 84.0447C19.8785 85.4651 20.4841 86.1756 20.9925 86.9339C22.158 88.6728 22.9669 90.6258 23.3724 92.6798C23.5493 93.5758 23.6235 94.5062 23.772 96.3664C24.145 101.041 24.3316 103.379 25.0204 105.329C26.6134 109.839 30.1612 113.387 34.6715 114.98C36.6215 115.668 38.9588 115.855 43.6332 116.228C45.4937 116.377 46.4245 116.451 47.3204 116.628C49.3742 117.033 51.3271 117.842 53.066 119.008C53.8247 119.516 54.5349 120.121 55.9555 121.332C59.5249 124.374 61.3094 125.895 63.1754 126.787C67.4915 128.849 72.5082 128.849 76.8243 126.787C78.6904 125.895 80.4748 124.374 84.0442 121.332C85.4646 120.121 86.1751 119.516 86.9334 119.008C88.6723 117.842 90.6254 117.033 92.6793 116.628C93.5753 116.451 94.5057 116.377 96.3659 116.228C101.04 115.855 103.378 115.668 105.328 114.98C109.839 113.387 113.386 109.839 114.98 105.329C115.668 103.379 115.855 101.041 116.228 96.367C116.376 94.5068 116.451 93.5758 116.627 92.6798C117.033 90.6258 117.842 88.6728 119.007 86.9339C119.516 86.1756 120.121 85.4651 121.331 84.0447C124.374 80.4753 125.894 78.6908 126.786 76.8248C128.849 72.5087 128.849 67.492 126.786 63.1759C125.894 61.3098 124.374 59.5254 121.331 55.956C120.121 54.5354 119.516 53.8251 119.007 53.0665C117.842 51.3276 117.033 49.3747 116.627 47.3209C116.451 46.425 116.376 45.4947 116.228 43.6341C115.855 38.9597 115.668 36.6219 114.98 34.672C113.386 30.1616 109.839 26.6139 105.328 25.0208C103.378 24.332 101.041 24.1456 96.3659 23.7725C94.5057 23.6241 93.5753 23.5498 92.6793 23.3729C90.6254 22.9674 88.6723 22.1585 86.9334 20.993C86.1751 20.4846 85.4646 19.8792 84.0442 18.6686C80.4748 15.6268 78.6904 14.106 76.8243 13.2141C72.5082 11.1513 67.4915 11.1513 63.1754 13.2141C61.3094 14.1059 59.5247 15.6271 55.9553 18.6688Z" fill="#B4F6DE"/>
<path d="M95.5126 57.5342C97.3664 55.6802 97.3664 52.6742 95.5126 50.8202C93.6581 48.9662 90.6522 48.9662 88.7984 50.8202L60.505 79.1136L51.2022 69.81C49.3481 67.9562 46.3422 67.9562 44.4882 69.81C42.6342 71.6644 42.6342 74.6703 44.4882 76.5242L57.1482 89.1843C59.0023 91.0381 62.0082 91.0381 63.8621 89.1843L95.5126 57.5342Z" fill="#66C27C"/>
</svg>
