<svg width="32" height="32" viewBox="0 0 32 32" fill="none" xmlns="http://www.w3.org/2000/svg">
<rect x="1.25" y="1.25" width="29.5" height="29.5" rx="14.75" fill="#FAFAFA"/>
<rect x="1.25" y="1.25" width="29.5" height="29.5" rx="14.75" stroke="#F2F2F2" stroke-width="1.5"/>
<path fill-rule="evenodd" clip-rule="evenodd" d="M11.0581 11.0581C11.3021 10.814 11.6979 10.814 11.9419 11.0581L16 15.1161L20.0581 11.0581C20.3021 10.814 20.6979 10.814 20.9419 11.0581C21.186 11.3021 21.186 11.6979 20.9419 11.9419L16.8839 16L20.9419 20.0581C21.186 20.3021 21.186 20.6979 20.9419 20.9419C20.6979 21.186 20.3021 21.186 20.0581 20.9419L16 16.8839L11.9419 20.9419C11.6979 21.186 11.3021 21.186 11.0581 20.9419C10.814 20.6979 10.814 20.3021 11.0581 20.0581L15.1161 16L11.0581 11.9419C10.814 11.6979 10.814 11.3021 11.0581 11.0581Z" fill="#010109"/>
</svg>
