<svg width="50" height="50" viewBox="0 0 50 50" fill="none" xmlns="http://www.w3.org/2000/svg">
<rect width="50" height="50" rx="25" fill="#F5FFF6"/>
<g clip-path="url(#clip0_1055_18652)">
<path d="M18 30C18 30.5304 18.2107 31.0391 18.5858 31.4142C18.9609 31.7893 19.4696 32 20 32C20.5304 32 21.0391 31.7893 21.4142 31.4142C21.7893 31.0391 22 30.5304 22 30C22 29.4696 21.7893 28.9609 21.4142 28.5858C21.0391 28.2107 20.5304 28 20 28C19.4696 28 18.9609 28.2107 18.5858 28.5858C18.2107 28.9609 18 29.4696 18 30Z" stroke="#66C27C" stroke-width="1.5" stroke-linecap="round" stroke-linejoin="round"/>
<path d="M28 30C28 30.5304 28.2107 31.0391 28.5858 31.4142C28.9609 31.7893 29.4696 32 30 32C30.5304 32 31.0391 31.7893 31.4142 31.4142C31.7893 31.0391 32 30.5304 32 30C32 29.4696 31.7893 28.9609 31.4142 28.5858C31.0391 28.2107 30.5304 28 30 28C29.4696 28 28.9609 28.2107 28.5858 28.5858C28.2107 28.9609 28 29.4696 28 30Z" stroke="#66C27C" stroke-width="1.5" stroke-linecap="round" stroke-linejoin="round"/>
<path d="M18 30H16V19C16 18.7348 16.1054 18.4804 16.2929 18.2929C16.4804 18.1054 16.7348 18 17 18H26V30M22 30H28M32 30H34V24M34 24H26M34 24L31 19H26" stroke="#66C27C" stroke-width="1.5" stroke-linecap="round" stroke-linejoin="round"/>
</g>
<defs>
<clipPath id="clip0_1055_18652">
<rect width="24" height="24" fill="white" transform="translate(13 13)"/>
</clipPath>
</defs>
</svg>
