<svg width="40" height="40" viewBox="0 0 36 36" fill="none" xmlns="http://www.w3.org/2000/svg">
<rect width="36" height="36" rx="18" fill="#F1F0FE"/>
<g clip-path="url(#clip0_1061_19652)">
<path d="M23 14V11C23 10.7348 22.8946 10.4804 22.7071 10.2929C22.5196 10.1054 22.2652 10 22 10H12C11.4696 10 10.9609 10.2107 10.5858 10.5858C10.2107 10.9609 10 11.4696 10 12M10 12C10 12.5304 10.2107 13.0391 10.5858 13.4142C10.9609 13.7893 11.4696 14 12 14H24C24.2652 14 24.5196 14.1054 24.7071 14.2929C24.8946 14.4804 25 14.7348 25 15V18M10 12V24C10 24.5304 10.2107 25.0391 10.5858 25.4142C10.9609 25.7893 11.4696 26 12 26H24C24.2652 26 24.5196 25.8946 24.7071 25.7071C24.8946 25.5196 25 25.2652 25 25V22" stroke="#0050A8" stroke-width="1.5" stroke-linecap="round" stroke-linejoin="round"/>
<path d="M26 18V22H22C21.4696 22 20.9609 21.7893 20.5858 21.4142C20.2107 21.0391 20 20.5304 20 20C20 19.4696 20.2107 18.9609 20.5858 18.5858C20.9609 18.2107 21.4696 18 22 18H26Z" stroke="#0050A8" stroke-width="1.5" stroke-linecap="round" stroke-linejoin="round"/>
</g>
<defs>
<clipPath id="clip0_1061_19652">
<rect width="24" height="24" fill="white" transform="translate(6 6)"/>
</clipPath>
</defs>
</svg>
