<svg width="40" height="40" viewBox="0 0 36 36" fill="none" xmlns="http://www.w3.org/2000/svg">
<rect width="36" height="36" rx="18" fill="#F1F0FE"/>
<path fill-rule="evenodd" clip-rule="evenodd" d="M22.2561 15.6527H13.528C12.8912 15.6527 12.375 15.1365 12.375 14.4997C12.375 14.0103 12.6839 13.5742 13.1456 13.4119L17.1637 11.9993C17.6351 11.8336 18.149 11.8336 18.6204 11.9993L22.6385 13.4119C23.1002 13.5742 23.4091 14.0103 23.4091 14.4997C23.4091 15.1365 22.8929 15.6527 22.2561 15.6527ZM11.25 14.4997C11.25 13.5328 11.8603 12.6713 12.7725 12.3506L16.7906 10.938C17.5035 10.6873 18.2806 10.6873 18.9935 10.938L23.0117 12.3506C23.9238 12.6713 24.5341 13.5328 24.5341 14.4997C24.5341 15.6447 23.6894 16.5924 22.5891 16.7535V20.5838C23.7297 21.0459 24.5341 22.1643 24.5341 23.4706C24.5341 23.9005 24.1856 24.249 23.7558 24.249H12.0284C11.5985 24.249 11.25 23.9005 11.25 23.4706C11.25 22.1772 12.0387 21.068 13.1614 20.5977V16.7483C12.0776 16.573 11.25 15.633 11.25 14.4997ZM18.4363 16.7777H21.4641V20.3574L21.4207 20.3571H18.4363V16.7777ZM17.3113 20.3571V16.7777H14.2864V20.3581C14.312 20.3575 14.3377 20.3571 14.3635 20.3571H17.3113ZM21.4207 21.4821C22.4006 21.4821 23.215 22.191 23.379 23.124H12.4051C12.5691 22.191 13.3835 21.4821 14.3635 21.4821H17.8921H21.4207ZM16.8556 13.8701C16.8556 14.442 17.3215 14.9079 17.8934 14.9079C18.4654 14.9079 18.9312 14.442 18.9312 13.8701C18.9312 13.2981 18.4654 12.8322 17.8934 12.8322C17.3215 12.8322 16.8556 13.2981 16.8556 13.8701Z" fill="#352D9C"/>
</svg>
