<svg width="19" height="19" viewBox="0 0 19 19" fill="none" xmlns="http://www.w3.org/2000/svg">
<path d="M6.29534 4.06889C6.23904 4.12519 6.19631 4.19306 6.16061 4.26746L6.15659 4.26344L0.518122 16.9651L0.523652 16.9706C0.419086 17.1732 0.594032 17.5854 0.952469 17.9444C1.31091 18.3028 1.72313 18.4778 1.92573 18.3732L1.93076 18.3782L14.6324 12.7392L14.6284 12.7347C14.7023 12.6995 14.7701 12.6568 14.827 12.5995C15.6122 11.8142 14.3388 9.26799 11.9836 6.91225C9.62735 4.55652 7.08109 3.28364 6.29534 4.06889Z" fill="#DD2E44"/>
<path d="M6.98608 6.33691L0.659888 16.6456L0.518122 16.9649L0.523652 16.9704C0.419086 17.173 0.594032 17.5852 0.952469 17.9441C1.0691 18.0608 1.19025 18.1493 1.3089 18.2242L8.99694 8.8505L6.98608 6.33691Z" fill="#EA596E"/>
<path d="M12.0191 6.87275C14.3668 9.22145 15.6704 11.725 14.9293 12.465C14.1888 13.206 11.6853 11.9029 9.33612 9.55525C6.98793 7.20656 5.68489 4.70202 6.42539 3.96152C7.1664 3.22102 9.66993 4.52406 12.0191 6.87275Z" fill="#A0041E"/>
<path d="M9.79637 7.14607C9.69633 7.22701 9.56562 7.26924 9.42738 7.25416C8.99102 7.2069 8.62404 7.05508 8.36715 6.81529C8.09518 6.56141 7.96095 6.22057 7.99765 5.87923C8.062 5.27999 8.66325 4.73002 9.68829 4.84061C10.0869 4.88335 10.2649 4.75515 10.2709 4.69382C10.278 4.63299 10.1317 4.46961 9.73303 4.42638C9.29667 4.37912 8.92969 4.2273 8.6723 3.9875C8.40033 3.73363 8.2656 3.39279 8.3028 3.05144C8.36815 2.45221 8.9689 1.90223 9.99293 2.01333C10.2835 2.0445 10.4368 1.98468 10.5017 1.94597C10.5535 1.9143 10.5741 1.88414 10.5761 1.86654C10.5821 1.80571 10.4378 1.64233 10.0382 1.5991C9.76219 1.56893 9.5621 1.3216 9.59277 1.0451C9.62243 0.76911 9.86926 0.569532 10.1463 0.599695C11.1703 0.70979 11.6408 1.37488 11.576 1.97463C11.5106 2.57487 10.9099 3.12384 9.88485 3.01374C9.59428 2.98207 9.44246 3.0424 9.37711 3.0811C9.32533 3.11227 9.30421 3.14294 9.3022 3.16003C9.29567 3.22136 9.44095 3.38424 9.84061 3.42748C10.8646 3.53807 11.3352 4.20267 11.2703 4.80241C11.2055 5.40165 10.6047 5.95162 9.5802 5.84052C9.28963 5.80935 9.13681 5.86968 9.07145 5.90788C9.01917 5.94006 8.99906 5.97022 8.99705 5.98731C8.99052 6.04814 9.1358 6.21152 9.53496 6.25476C9.81045 6.28492 10.011 6.53276 9.98037 6.80875C9.96629 6.94649 9.89641 7.06564 9.79637 7.14607Z" fill="#AA8DD8"/>
<path d="M15.8644 11.7952C16.8562 11.5152 17.5404 11.9576 17.7033 12.5383C17.8662 13.1184 17.5133 13.8529 16.5219 14.1319C16.1349 14.2404 16.0187 14.4254 16.0343 14.4843C16.0514 14.5436 16.248 14.6411 16.634 14.532C17.6254 14.253 18.3096 14.6954 18.4725 15.2755C18.6364 15.8562 18.2825 16.5896 17.2906 16.8692C16.904 16.9777 16.7874 17.1632 16.8045 17.2221C16.8211 17.2809 17.0171 17.3784 17.4037 17.2698C17.6701 17.1949 17.9487 17.3503 18.0236 17.6172C18.098 17.8846 17.9426 18.1621 17.6752 18.2376C16.6843 18.5166 15.9996 18.0752 15.8357 17.494C15.6729 16.9139 16.0263 16.1804 17.0186 15.9009C17.4057 15.7918 17.5218 15.6073 17.5048 15.548C17.4887 15.4892 17.2926 15.3912 16.9065 15.4998C15.9142 15.7793 15.2305 15.3379 15.0671 14.7562C14.9037 14.1761 15.2571 13.4426 16.249 13.1626C16.6351 13.0545 16.7512 12.8685 16.7351 12.8102C16.718 12.7509 16.5224 12.6534 16.1359 12.762C15.8684 12.8374 15.5914 12.6815 15.516 12.4146C15.4411 12.1481 15.5969 11.8706 15.8644 11.7952Z" fill="#77B255"/>
<path d="M12.0139 10.4396C11.8661 10.4396 11.7203 10.3747 11.6208 10.2511C11.4473 10.0339 11.483 9.71767 11.6992 9.54423C11.8088 9.45626 14.4229 7.40316 18.1174 7.93151C18.3923 7.97073 18.5834 8.2251 18.5442 8.50009C18.505 8.77457 18.2526 8.96761 17.9751 8.92639C14.711 8.46289 12.3512 10.3109 12.3281 10.3295C12.2346 10.4039 12.124 10.4396 12.0139 10.4396Z" fill="#AA8DD8"/>
<path d="M3.34325 8.34785C3.29549 8.34785 3.24673 8.34081 3.19847 8.32674C2.93253 8.2468 2.78172 7.96679 2.86165 7.70085C3.43123 5.8041 3.94752 2.77724 3.31309 1.98798C3.2422 1.8985 3.13513 1.81052 2.8898 1.82912C2.41825 1.86532 2.46299 2.86019 2.4635 2.87025C2.48461 3.14724 2.27648 3.38855 1.99999 3.40916C1.71897 3.42625 1.48169 3.22215 1.46108 2.94515C1.4093 2.25191 1.62496 0.91669 2.81439 0.826703C3.34526 0.786486 3.78614 0.970983 4.09733 1.35807C5.28927 2.84159 4.07923 7.14234 3.82485 7.98992C3.7595 8.20759 3.55942 8.34785 3.34325 8.34785Z" fill="#77B255"/>
<path d="M13.2702 5.83432C13.6867 5.83432 14.0243 5.49671 14.0243 5.08025C14.0243 4.66378 13.6867 4.32617 13.2702 4.32617C12.8537 4.32617 12.5161 4.66378 12.5161 5.08025C12.5161 5.49671 12.8537 5.83432 13.2702 5.83432Z" fill="#5C913B"/>
<path d="M1.45612 10.3585C2.0114 10.3585 2.46155 9.90838 2.46155 9.35309C2.46155 8.7978 2.0114 8.34766 1.45612 8.34766C0.900832 8.34766 0.450684 8.7978 0.450684 9.35309C0.450684 9.90838 0.900832 10.3585 1.45612 10.3585Z" fill="#9266CC"/>
<path d="M16.7887 10.8617C17.2052 10.8617 17.5428 10.5241 17.5428 10.1076C17.5428 9.69113 17.2052 9.35352 16.7887 9.35352C16.3723 9.35352 16.0347 9.69113 16.0347 10.1076C16.0347 10.5241 16.3723 10.8617 16.7887 10.8617Z" fill="#5C913B"/>
<path d="M12.2643 16.8939C12.6808 16.8939 13.0184 16.5563 13.0184 16.1398C13.0184 15.7234 12.6808 15.3857 12.2643 15.3857C11.8479 15.3857 11.5103 15.7234 11.5103 16.1398C11.5103 16.5563 11.8479 16.8939 12.2643 16.8939Z" fill="#5C913B"/>
<path d="M14.5269 3.32044C15.0822 3.32044 15.5324 2.87029 15.5324 2.315C15.5324 1.75972 15.0822 1.30957 14.5269 1.30957C13.9716 1.30957 13.5215 1.75972 13.5215 2.315C13.5215 2.87029 13.9716 3.32044 14.5269 3.32044Z" fill="#FFCC4D"/>
<path d="M16.7887 5.33139C17.2052 5.33139 17.5428 4.99378 17.5428 4.57732C17.5428 4.16085 17.2052 3.82324 16.7887 3.82324C16.3723 3.82324 16.0347 4.16085 16.0347 4.57732C16.0347 4.99378 16.3723 5.33139 16.7887 5.33139Z" fill="#FFCC4D"/>
<path d="M15.2809 7.34213C15.6974 7.34213 16.035 7.00452 16.035 6.58806C16.035 6.1716 15.6974 5.83398 15.2809 5.83398C14.8645 5.83398 14.5269 6.1716 14.5269 6.58806C14.5269 7.00452 14.8645 7.34213 15.2809 7.34213Z" fill="#FFCC4D"/>
<path d="M4.22087 12.8724C4.63734 12.8724 4.97495 12.5348 4.97495 12.1183C4.97495 11.7019 4.63734 11.3643 4.22087 11.3643C3.80441 11.3643 3.4668 11.7019 3.4668 12.1183C3.4668 12.5348 3.80441 12.8724 4.22087 12.8724Z" fill="#FFCC4D"/>
</svg>
