<svg width="20" height="20" viewBox="0 0 20 20" fill="none" xmlns="http://www.w3.org/2000/svg">
<g clip-path="url(#clip0_1061_19912)">
<path d="M8.33337 6.66732V5.00065C8.33337 4.55862 8.50897 4.1347 8.82153 3.82214C9.13409 3.50958 9.55801 3.33398 10 3.33398H15.8334C16.2754 3.33398 16.6993 3.50958 17.0119 3.82214C17.3244 4.1347 17.5 4.55862 17.5 5.00065V15.0007C17.5 15.4427 17.3244 15.8666 17.0119 16.1792C16.6993 16.4917 16.2754 16.6673 15.8334 16.6673H10C9.55801 16.6673 9.13409 16.4917 8.82153 16.1792C8.50897 15.8666 8.33337 15.4427 8.33337 15.0007V13.334" stroke="#737373" stroke-width="1.5" stroke-linecap="round" stroke-linejoin="round"/>
<path d="M12.5 10H2.5L5 7.5" stroke="#737373" stroke-width="1.5" stroke-linecap="round" stroke-linejoin="round"/>
<path d="M5 12.5L2.5 10" stroke="#737373" stroke-width="1.5" stroke-linecap="round" stroke-linejoin="round"/>
</g>
<defs>
<clipPath id="clip0_1061_19912">
<rect width="20" height="20" fill="white"/>
</clipPath>
</defs>
</svg>
