<svg width="374" height="119" viewBox="0 0 374 119" fill="none" xmlns="http://www.w3.org/2000/svg">
<g opacity="0.3">
<ellipse opacity="0.0169492" cx="186.959" cy="155.71" rx="26.4484" ry="218.199" transform="rotate(140 186.959 155.71)" stroke="url(#paint0_linear_1051_17160)" stroke-width="4"/>
<ellipse opacity="0.0338983" cx="186.959" cy="155.71" rx="26.4484" ry="214.893" transform="rotate(150 186.959 155.71)" stroke="url(#paint1_linear_1051_17160)" stroke-width="4"/>
<ellipse opacity="0.0508475" cx="186.959" cy="155.71" rx="26.4484" ry="211.587" transform="rotate(160 186.959 155.71)" stroke="url(#paint2_linear_1051_17160)" stroke-width="4"/>
<ellipse opacity="0.0677966" cx="186.959" cy="155.71" rx="26.4484" ry="208.281" transform="rotate(170 186.959 155.71)" stroke="url(#paint3_linear_1051_17160)" stroke-width="4"/>
<ellipse opacity="0.0847458" cx="186.959" cy="155.71" rx="26.4484" ry="204.975" transform="rotate(-180 186.959 155.71)" stroke="url(#paint4_linear_1051_17160)" stroke-width="4"/>
<ellipse opacity="0.101695" cx="186.959" cy="155.709" rx="26.4484" ry="201.669" transform="rotate(-170 186.959 155.709)" stroke="url(#paint5_linear_1051_17160)" stroke-width="4"/>
<ellipse opacity="0.118644" cx="186.958" cy="155.71" rx="26.4484" ry="198.363" transform="rotate(-160 186.958 155.71)" stroke="url(#paint6_linear_1051_17160)" stroke-width="4"/>
<ellipse opacity="0.135593" cx="186.959" cy="155.709" rx="26.4484" ry="195.057" transform="rotate(-150 186.959 155.709)" stroke="url(#paint7_linear_1051_17160)" stroke-width="4"/>
<ellipse opacity="0.152542" cx="186.959" cy="155.71" rx="26.4484" ry="191.751" transform="rotate(-140 186.959 155.71)" stroke="url(#paint8_linear_1051_17160)" stroke-width="4"/>
<ellipse opacity="0.169492" cx="186.959" cy="155.709" rx="26.4484" ry="188.445" transform="rotate(-130 186.959 155.709)" stroke="url(#paint9_linear_1051_17160)" stroke-width="4"/>
<ellipse opacity="0.186441" cx="186.959" cy="155.709" rx="26.4484" ry="185.139" transform="rotate(-120 186.959 155.709)" stroke="url(#paint10_linear_1051_17160)" stroke-width="4"/>
<ellipse opacity="0.20339" cx="186.959" cy="155.71" rx="26.4484" ry="181.833" transform="rotate(-110 186.959 155.71)" stroke="url(#paint11_linear_1051_17160)" stroke-width="4"/>
<ellipse opacity="0.220339" cx="186.959" cy="155.709" rx="26.4484" ry="178.527" transform="rotate(-100 186.959 155.709)" stroke="url(#paint12_linear_1051_17160)" stroke-width="4"/>
<ellipse opacity="0.254237" cx="186.959" cy="155.709" rx="26.4484" ry="171.915" transform="rotate(-80 186.959 155.709)" stroke="url(#paint13_linear_1051_17160)" stroke-width="4"/>
<ellipse opacity="0.271186" cx="186.958" cy="155.709" rx="26.4484" ry="168.609" transform="rotate(-70 186.958 155.709)" stroke="url(#paint14_linear_1051_17160)" stroke-width="4"/>
<ellipse opacity="0.288136" cx="186.959" cy="155.709" rx="26.4484" ry="165.303" transform="rotate(-60 186.959 155.709)" stroke="url(#paint15_linear_1051_17160)" stroke-width="4"/>
<ellipse opacity="0.305085" cx="186.959" cy="155.709" rx="26.4484" ry="161.996" transform="rotate(-50 186.959 155.709)" stroke="url(#paint16_linear_1051_17160)" stroke-width="4"/>
<ellipse opacity="0.322034" cx="186.958" cy="155.709" rx="26.4484" ry="158.69" transform="rotate(-40 186.958 155.709)" stroke="url(#paint17_linear_1051_17160)" stroke-width="4"/>
<ellipse opacity="0.338983" cx="186.959" cy="155.709" rx="26.4484" ry="155.384" transform="rotate(-30 186.959 155.709)" stroke="url(#paint18_linear_1051_17160)" stroke-width="4"/>
<ellipse opacity="0.355932" cx="186.959" cy="155.71" rx="26.4484" ry="152.078" transform="rotate(-20 186.959 155.71)" stroke="url(#paint19_linear_1051_17160)" stroke-width="4"/>
<ellipse opacity="0.372881" cx="186.959" cy="155.709" rx="26.4484" ry="148.772" transform="rotate(-10 186.959 155.709)" stroke="url(#paint20_linear_1051_17160)" stroke-width="4"/>
<ellipse opacity="0.38983" cx="186.958" cy="155.709" rx="26.4484" ry="145.466" stroke="url(#paint21_linear_1051_17160)" stroke-width="4"/>
<ellipse opacity="0.40678" cx="186.959" cy="155.709" rx="26.4484" ry="142.16" transform="rotate(10 186.959 155.709)" stroke="url(#paint22_linear_1051_17160)" stroke-width="4"/>
<ellipse opacity="0.423729" cx="186.959" cy="155.709" rx="26.4484" ry="138.854" transform="rotate(20 186.959 155.709)" stroke="url(#paint23_linear_1051_17160)" stroke-width="4"/>
<ellipse opacity="0.440678" cx="186.959" cy="155.71" rx="26.4484" ry="135.548" transform="rotate(30 186.959 155.71)" stroke="url(#paint24_linear_1051_17160)" stroke-width="4"/>
<ellipse opacity="0.457627" cx="186.959" cy="155.71" rx="26.4484" ry="132.242" transform="rotate(40 186.959 155.71)" stroke="url(#paint25_linear_1051_17160)" stroke-width="4"/>
<ellipse opacity="0.474576" cx="186.959" cy="155.71" rx="26.4484" ry="128.936" transform="rotate(50 186.959 155.71)" stroke="url(#paint26_linear_1051_17160)" stroke-width="4"/>
<ellipse opacity="0.491525" cx="186.959" cy="155.709" rx="26.4484" ry="125.63" transform="rotate(60 186.959 155.709)" stroke="url(#paint27_linear_1051_17160)" stroke-width="4"/>
<ellipse opacity="0.508475" cx="186.959" cy="155.71" rx="26.4484" ry="122.324" transform="rotate(70 186.959 155.71)" stroke="url(#paint28_linear_1051_17160)" stroke-width="4"/>
<ellipse opacity="0.525424" cx="186.959" cy="155.709" rx="26.4484" ry="119.018" transform="rotate(80 186.959 155.709)" stroke="url(#paint29_linear_1051_17160)" stroke-width="4"/>
<ellipse opacity="0.559322" cx="186.959" cy="155.71" rx="26.4484" ry="112.406" transform="rotate(100 186.959 155.71)" stroke="url(#paint30_linear_1051_17160)" stroke-width="4"/>
<ellipse opacity="0.576271" cx="186.959" cy="155.71" rx="26.4484" ry="109.1" transform="rotate(110 186.959 155.71)" stroke="url(#paint31_linear_1051_17160)" stroke-width="4"/>
<ellipse opacity="0.59322" cx="186.959" cy="155.709" rx="26.4484" ry="105.794" transform="rotate(120 186.959 155.709)" stroke="url(#paint32_linear_1051_17160)" stroke-width="4"/>
<ellipse opacity="0.610169" cx="186.959" cy="155.71" rx="26.4484" ry="102.488" transform="rotate(130 186.959 155.71)" stroke="url(#paint33_linear_1051_17160)" stroke-width="4"/>
<ellipse opacity="0.627119" cx="186.959" cy="155.71" rx="26.4484" ry="99.1815" transform="rotate(140 186.959 155.71)" stroke="url(#paint34_linear_1051_17160)" stroke-width="4"/>
<ellipse opacity="0.644068" cx="186.959" cy="155.71" rx="26.4484" ry="95.8755" transform="rotate(150 186.959 155.71)" stroke="url(#paint35_linear_1051_17160)" stroke-width="4"/>
<ellipse opacity="0.661017" cx="186.959" cy="155.709" rx="26.4484" ry="92.5694" transform="rotate(160 186.959 155.709)" stroke="url(#paint36_linear_1051_17160)" stroke-width="4"/>
<ellipse opacity="0.677966" cx="186.959" cy="155.71" rx="26.4484" ry="89.2634" transform="rotate(170 186.959 155.71)" stroke="url(#paint37_linear_1051_17160)" stroke-width="4"/>
<ellipse opacity="0.694915" cx="186.958" cy="155.71" rx="26.4484" ry="85.9573" transform="rotate(-180 186.958 155.71)" stroke="url(#paint38_linear_1051_17160)" stroke-width="4"/>
<ellipse opacity="0.711864" cx="186.959" cy="155.71" rx="26.4484" ry="82.6513" transform="rotate(-170 186.959 155.71)" stroke="url(#paint39_linear_1051_17160)" stroke-width="4"/>
<ellipse opacity="0.728814" cx="186.958" cy="155.709" rx="26.4484" ry="79.3452" transform="rotate(-160 186.958 155.709)" stroke="url(#paint40_linear_1051_17160)" stroke-width="4"/>
<ellipse opacity="0.745763" cx="186.959" cy="155.71" rx="26.4484" ry="76.0392" transform="rotate(-150 186.959 155.71)" stroke="url(#paint41_linear_1051_17160)" stroke-width="4"/>
<ellipse opacity="0.762712" cx="186.959" cy="155.709" rx="26.4484" ry="72.7331" transform="rotate(-140 186.959 155.709)" stroke="url(#paint42_linear_1051_17160)" stroke-width="4"/>
<ellipse opacity="0.779661" cx="186.958" cy="155.71" rx="26.4484" ry="69.4271" transform="rotate(-130 186.958 155.71)" stroke="url(#paint43_linear_1051_17160)" stroke-width="4"/>
<ellipse opacity="0.79661" cx="186.959" cy="155.709" rx="26.4484" ry="66.121" transform="rotate(-120 186.959 155.709)" stroke="url(#paint44_linear_1051_17160)" stroke-width="4"/>
<ellipse opacity="0.813559" cx="186.959" cy="155.709" rx="26.4484" ry="62.815" transform="rotate(-110 186.959 155.709)" stroke="url(#paint45_linear_1051_17160)" stroke-width="4"/>
<ellipse opacity="0.830508" cx="186.959" cy="155.71" rx="26.4484" ry="59.5089" transform="rotate(-100 186.959 155.71)" stroke="url(#paint46_linear_1051_17160)" stroke-width="4"/>
<ellipse opacity="0.864407" cx="186.959" cy="155.709" rx="26.4484" ry="52.8968" transform="rotate(-80 186.959 155.709)" stroke="url(#paint47_linear_1051_17160)" stroke-width="4"/>
<ellipse opacity="0.881356" cx="186.959" cy="155.709" rx="26.4484" ry="49.5908" transform="rotate(-70 186.959 155.709)" stroke="url(#paint48_linear_1051_17160)" stroke-width="4"/>
<ellipse opacity="0.898305" cx="186.959" cy="155.71" rx="26.4484" ry="46.2847" transform="rotate(-60 186.959 155.71)" stroke="url(#paint49_linear_1051_17160)" stroke-width="4"/>
<ellipse opacity="0.915254" cx="186.959" cy="155.71" rx="26.4484" ry="42.9787" transform="rotate(-50 186.959 155.71)" stroke="url(#paint50_linear_1051_17160)" stroke-width="4"/>
<ellipse opacity="0.932203" cx="186.959" cy="155.709" rx="26.4484" ry="39.6726" transform="rotate(-40 186.959 155.709)" stroke="url(#paint51_linear_1051_17160)" stroke-width="4"/>
<ellipse opacity="0.949153" cx="186.959" cy="155.709" rx="26.4484" ry="36.3666" transform="rotate(-30 186.959 155.709)" stroke="url(#paint52_linear_1051_17160)" stroke-width="4"/>
<ellipse opacity="0.966102" cx="186.959" cy="155.709" rx="26.4484" ry="33.0605" transform="rotate(-20 186.959 155.709)" stroke="url(#paint53_linear_1051_17160)" stroke-width="4"/>
</g>
<defs>
<linearGradient id="paint0_linear_1051_17160" x1="186.959" y1="-62.4897" x2="186.959" y2="390.274" gradientUnits="userSpaceOnUse">
<stop stop-color="#FF1CF7"/>
<stop offset="1" stop-color="#00F0FF"/>
</linearGradient>
<linearGradient id="paint1_linear_1051_17160" x1="186.959" y1="-59.1838" x2="186.959" y2="386.72" gradientUnits="userSpaceOnUse">
<stop stop-color="#FF1CF7"/>
<stop offset="1" stop-color="#00F0FF"/>
</linearGradient>
<linearGradient id="paint2_linear_1051_17160" x1="186.959" y1="-55.8776" x2="186.959" y2="383.166" gradientUnits="userSpaceOnUse">
<stop stop-color="#FF1CF7"/>
<stop offset="1" stop-color="#00F0FF"/>
</linearGradient>
<linearGradient id="paint3_linear_1051_17160" x1="186.959" y1="-52.5716" x2="186.959" y2="379.612" gradientUnits="userSpaceOnUse">
<stop stop-color="#FF1CF7"/>
<stop offset="1" stop-color="#00F0FF"/>
</linearGradient>
<linearGradient id="paint4_linear_1051_17160" x1="186.959" y1="-49.2652" x2="186.959" y2="376.058" gradientUnits="userSpaceOnUse">
<stop stop-color="#FF1CF7"/>
<stop offset="1" stop-color="#00F0FF"/>
</linearGradient>
<linearGradient id="paint5_linear_1051_17160" x1="186.959" y1="-45.9599" x2="186.959" y2="372.503" gradientUnits="userSpaceOnUse">
<stop stop-color="#FF1CF7"/>
<stop offset="1" stop-color="#00F0FF"/>
</linearGradient>
<linearGradient id="paint6_linear_1051_17160" x1="186.958" y1="-42.6535" x2="186.958" y2="368.95" gradientUnits="userSpaceOnUse">
<stop stop-color="#FF1CF7"/>
<stop offset="1" stop-color="#00F0FF"/>
</linearGradient>
<linearGradient id="paint7_linear_1051_17160" x1="186.959" y1="-39.3476" x2="186.959" y2="365.396" gradientUnits="userSpaceOnUse">
<stop stop-color="#FF1CF7"/>
<stop offset="1" stop-color="#00F0FF"/>
</linearGradient>
<linearGradient id="paint8_linear_1051_17160" x1="186.959" y1="-36.0413" x2="186.959" y2="361.842" gradientUnits="userSpaceOnUse">
<stop stop-color="#FF1CF7"/>
<stop offset="1" stop-color="#00F0FF"/>
</linearGradient>
<linearGradient id="paint9_linear_1051_17160" x1="186.959" y1="-32.7355" x2="186.959" y2="358.288" gradientUnits="userSpaceOnUse">
<stop stop-color="#FF1CF7"/>
<stop offset="1" stop-color="#00F0FF"/>
</linearGradient>
<linearGradient id="paint10_linear_1051_17160" x1="186.959" y1="-29.4297" x2="186.959" y2="354.733" gradientUnits="userSpaceOnUse">
<stop stop-color="#FF1CF7"/>
<stop offset="1" stop-color="#00F0FF"/>
</linearGradient>
<linearGradient id="paint11_linear_1051_17160" x1="186.959" y1="-26.1232" x2="186.959" y2="351.18" gradientUnits="userSpaceOnUse">
<stop stop-color="#FF1CF7"/>
<stop offset="1" stop-color="#00F0FF"/>
</linearGradient>
<linearGradient id="paint12_linear_1051_17160" x1="186.959" y1="-22.8174" x2="186.959" y2="347.626" gradientUnits="userSpaceOnUse">
<stop stop-color="#FF1CF7"/>
<stop offset="1" stop-color="#00F0FF"/>
</linearGradient>
<linearGradient id="paint13_linear_1051_17160" x1="186.959" y1="-16.2052" x2="186.959" y2="340.518" gradientUnits="userSpaceOnUse">
<stop stop-color="#FF1CF7"/>
<stop offset="1" stop-color="#00F0FF"/>
</linearGradient>
<linearGradient id="paint14_linear_1051_17160" x1="186.958" y1="-12.8994" x2="186.958" y2="336.963" gradientUnits="userSpaceOnUse">
<stop stop-color="#FF1CF7"/>
<stop offset="1" stop-color="#00F0FF"/>
</linearGradient>
<linearGradient id="paint15_linear_1051_17160" x1="186.959" y1="-9.59337" x2="186.959" y2="333.409" gradientUnits="userSpaceOnUse">
<stop stop-color="#FF1CF7"/>
<stop offset="1" stop-color="#00F0FF"/>
</linearGradient>
<linearGradient id="paint16_linear_1051_17160" x1="186.959" y1="-6.28746" x2="186.959" y2="329.855" gradientUnits="userSpaceOnUse">
<stop stop-color="#FF1CF7"/>
<stop offset="1" stop-color="#00F0FF"/>
</linearGradient>
<linearGradient id="paint17_linear_1051_17160" x1="186.958" y1="-2.98123" x2="186.958" y2="326.301" gradientUnits="userSpaceOnUse">
<stop stop-color="#FF1CF7"/>
<stop offset="1" stop-color="#00F0FF"/>
</linearGradient>
<linearGradient id="paint18_linear_1051_17160" x1="186.959" y1="0.324936" x2="186.959" y2="322.748" gradientUnits="userSpaceOnUse">
<stop stop-color="#FF1CF7"/>
<stop offset="1" stop-color="#00F0FF"/>
</linearGradient>
<linearGradient id="paint19_linear_1051_17160" x1="186.959" y1="3.6313" x2="186.959" y2="319.194" gradientUnits="userSpaceOnUse">
<stop stop-color="#FF1CF7"/>
<stop offset="1" stop-color="#00F0FF"/>
</linearGradient>
<linearGradient id="paint20_linear_1051_17160" x1="186.959" y1="6.93713" x2="186.959" y2="315.64" gradientUnits="userSpaceOnUse">
<stop stop-color="#FF1CF7"/>
<stop offset="1" stop-color="#00F0FF"/>
</linearGradient>
<linearGradient id="paint21_linear_1051_17160" x1="186.958" y1="10.2432" x2="186.959" y2="312.086" gradientUnits="userSpaceOnUse">
<stop stop-color="#FF1CF7"/>
<stop offset="1" stop-color="#00F0FF"/>
</linearGradient>
<linearGradient id="paint22_linear_1051_17160" x1="186.959" y1="13.5492" x2="186.959" y2="308.532" gradientUnits="userSpaceOnUse">
<stop stop-color="#FF1CF7"/>
<stop offset="1" stop-color="#00F0FF"/>
</linearGradient>
<linearGradient id="paint23_linear_1051_17160" x1="186.959" y1="16.8551" x2="186.959" y2="304.977" gradientUnits="userSpaceOnUse">
<stop stop-color="#FF1CF7"/>
<stop offset="1" stop-color="#00F0FF"/>
</linearGradient>
<linearGradient id="paint24_linear_1051_17160" x1="186.959" y1="20.1618" x2="186.959" y2="301.424" gradientUnits="userSpaceOnUse">
<stop stop-color="#FF1CF7"/>
<stop offset="1" stop-color="#00F0FF"/>
</linearGradient>
<linearGradient id="paint25_linear_1051_17160" x1="186.959" y1="23.4677" x2="186.959" y2="297.87" gradientUnits="userSpaceOnUse">
<stop stop-color="#FF1CF7"/>
<stop offset="1" stop-color="#00F0FF"/>
</linearGradient>
<linearGradient id="paint26_linear_1051_17160" x1="186.959" y1="26.7739" x2="186.959" y2="294.316" gradientUnits="userSpaceOnUse">
<stop stop-color="#FF1CF7"/>
<stop offset="1" stop-color="#00F0FF"/>
</linearGradient>
<linearGradient id="paint27_linear_1051_17160" x1="186.959" y1="30.0793" x2="186.959" y2="290.761" gradientUnits="userSpaceOnUse">
<stop stop-color="#FF1CF7"/>
<stop offset="1" stop-color="#00F0FF"/>
</linearGradient>
<linearGradient id="paint28_linear_1051_17160" x1="186.959" y1="33.3858" x2="186.959" y2="287.208" gradientUnits="userSpaceOnUse">
<stop stop-color="#FF1CF7"/>
<stop offset="1" stop-color="#00F0FF"/>
</linearGradient>
<linearGradient id="paint29_linear_1051_17160" x1="186.959" y1="36.6916" x2="186.959" y2="283.654" gradientUnits="userSpaceOnUse">
<stop stop-color="#FF1CF7"/>
<stop offset="1" stop-color="#00F0FF"/>
</linearGradient>
<linearGradient id="paint30_linear_1051_17160" x1="186.959" y1="43.3039" x2="186.959" y2="276.546" gradientUnits="userSpaceOnUse">
<stop stop-color="#FF1CF7"/>
<stop offset="1" stop-color="#00F0FF"/>
</linearGradient>
<linearGradient id="paint31_linear_1051_17160" x1="186.959" y1="46.6103" x2="186.959" y2="272.992" gradientUnits="userSpaceOnUse">
<stop stop-color="#FF1CF7"/>
<stop offset="1" stop-color="#00F0FF"/>
</linearGradient>
<linearGradient id="paint32_linear_1051_17160" x1="186.959" y1="49.9157" x2="186.959" y2="269.437" gradientUnits="userSpaceOnUse">
<stop stop-color="#FF1CF7"/>
<stop offset="1" stop-color="#00F0FF"/>
</linearGradient>
<linearGradient id="paint33_linear_1051_17160" x1="186.959" y1="53.222" x2="186.959" y2="265.884" gradientUnits="userSpaceOnUse">
<stop stop-color="#FF1CF7"/>
<stop offset="1" stop-color="#00F0FF"/>
</linearGradient>
<linearGradient id="paint34_linear_1051_17160" x1="186.959" y1="56.5283" x2="186.959" y2="262.33" gradientUnits="userSpaceOnUse">
<stop stop-color="#FF1CF7"/>
<stop offset="1" stop-color="#00F0FF"/>
</linearGradient>
<linearGradient id="paint35_linear_1051_17160" x1="186.959" y1="59.8342" x2="186.959" y2="258.776" gradientUnits="userSpaceOnUse">
<stop stop-color="#FF1CF7"/>
<stop offset="1" stop-color="#00F0FF"/>
</linearGradient>
<linearGradient id="paint36_linear_1051_17160" x1="186.959" y1="63.1401" x2="186.959" y2="255.222" gradientUnits="userSpaceOnUse">
<stop stop-color="#FF1CF7"/>
<stop offset="1" stop-color="#00F0FF"/>
</linearGradient>
<linearGradient id="paint37_linear_1051_17160" x1="186.959" y1="66.4465" x2="186.959" y2="251.668" gradientUnits="userSpaceOnUse">
<stop stop-color="#FF1CF7"/>
<stop offset="1" stop-color="#00F0FF"/>
</linearGradient>
<linearGradient id="paint38_linear_1051_17160" x1="186.958" y1="69.7523" x2="186.958" y2="248.114" gradientUnits="userSpaceOnUse">
<stop stop-color="#FF1CF7"/>
<stop offset="1" stop-color="#00F0FF"/>
</linearGradient>
<linearGradient id="paint39_linear_1051_17160" x1="186.959" y1="73.0586" x2="186.959" y2="244.56" gradientUnits="userSpaceOnUse">
<stop stop-color="#FF1CF7"/>
<stop offset="1" stop-color="#00F0FF"/>
</linearGradient>
<linearGradient id="paint40_linear_1051_17160" x1="186.958" y1="76.3642" x2="186.958" y2="241.006" gradientUnits="userSpaceOnUse">
<stop stop-color="#FF1CF7"/>
<stop offset="1" stop-color="#00F0FF"/>
</linearGradient>
<linearGradient id="paint41_linear_1051_17160" x1="186.959" y1="79.6704" x2="186.959" y2="237.452" gradientUnits="userSpaceOnUse">
<stop stop-color="#FF1CF7"/>
<stop offset="1" stop-color="#00F0FF"/>
</linearGradient>
<linearGradient id="paint42_linear_1051_17160" x1="186.959" y1="82.9761" x2="186.959" y2="233.897" gradientUnits="userSpaceOnUse">
<stop stop-color="#FF1CF7"/>
<stop offset="1" stop-color="#00F0FF"/>
</linearGradient>
<linearGradient id="paint43_linear_1051_17160" x1="186.958" y1="86.2826" x2="186.958" y2="230.344" gradientUnits="userSpaceOnUse">
<stop stop-color="#FF1CF7"/>
<stop offset="1" stop-color="#00F0FF"/>
</linearGradient>
<linearGradient id="paint44_linear_1051_17160" x1="186.959" y1="89.5883" x2="186.959" y2="226.789" gradientUnits="userSpaceOnUse">
<stop stop-color="#FF1CF7"/>
<stop offset="1" stop-color="#00F0FF"/>
</linearGradient>
<linearGradient id="paint45_linear_1051_17160" x1="186.959" y1="92.8941" x2="186.959" y2="223.235" gradientUnits="userSpaceOnUse">
<stop stop-color="#FF1CF7"/>
<stop offset="1" stop-color="#00F0FF"/>
</linearGradient>
<linearGradient id="paint46_linear_1051_17160" x1="186.959" y1="96.2007" x2="186.959" y2="219.682" gradientUnits="userSpaceOnUse">
<stop stop-color="#FF1CF7"/>
<stop offset="1" stop-color="#00F0FF"/>
</linearGradient>
<linearGradient id="paint47_linear_1051_17160" x1="186.959" y1="102.812" x2="186.959" y2="212.573" gradientUnits="userSpaceOnUse">
<stop stop-color="#FF1CF7"/>
<stop offset="1" stop-color="#00F0FF"/>
</linearGradient>
<linearGradient id="paint48_linear_1051_17160" x1="186.959" y1="106.118" x2="186.959" y2="209.019" gradientUnits="userSpaceOnUse">
<stop stop-color="#FF1CF7"/>
<stop offset="1" stop-color="#00F0FF"/>
</linearGradient>
<linearGradient id="paint49_linear_1051_17160" x1="186.959" y1="109.425" x2="186.959" y2="205.466" gradientUnits="userSpaceOnUse">
<stop stop-color="#FF1CF7"/>
<stop offset="1" stop-color="#00F0FF"/>
</linearGradient>
<linearGradient id="paint50_linear_1051_17160" x1="186.959" y1="112.731" x2="186.959" y2="201.912" gradientUnits="userSpaceOnUse">
<stop stop-color="#FF1CF7"/>
<stop offset="1" stop-color="#00F0FF"/>
</linearGradient>
<linearGradient id="paint51_linear_1051_17160" x1="186.959" y1="116.037" x2="186.959" y2="198.357" gradientUnits="userSpaceOnUse">
<stop stop-color="#FF1CF7"/>
<stop offset="1" stop-color="#00F0FF"/>
</linearGradient>
<linearGradient id="paint52_linear_1051_17160" x1="186.959" y1="119.343" x2="186.959" y2="194.803" gradientUnits="userSpaceOnUse">
<stop stop-color="#FF1CF7"/>
<stop offset="1" stop-color="#00F0FF"/>
</linearGradient>
<linearGradient id="paint53_linear_1051_17160" x1="186.959" y1="122.649" x2="186.959" y2="191.249" gradientUnits="userSpaceOnUse">
<stop stop-color="#FF1CF7"/>
<stop offset="1" stop-color="#00F0FF"/>
</linearGradient>
</defs>
</svg>
