<svg width="48" height="48" viewBox="0 0 48 48" fill="none" xmlns="http://www.w3.org/2000/svg">
<circle cx="24" cy="24" r="24" fill="#F2F5FA"/>
<path d="M14.5 29.5H32.5L29 26.5V18.5L26.5 14.5H20.5L17.5 18.5V26.5L14.5 29.5Z" stroke="#020B2A" stroke-width="2"/>
<circle cx="29" cy="16.5" r="4.5" fill="white"/>
<circle cx="29" cy="16.5" r="3.5" fill="#FF5E5E"/>
<mask id="path-5-inside-1_4_209" fill="white">
<path d="M23.5 32.5L22 31.5V30H25.5V31.5L23.5 32.5Z"/>
</mask>
<path d="M22 31.5H19V33.1056L20.3359 33.9962L22 31.5ZM23.5 32.5L21.8359 34.9962L23.2845 35.9619L24.8416 35.1833L23.5 32.5ZM25.5 31.5L26.8416 34.1833L28.5 33.3541V31.5H25.5ZM25.5 30H28.5V27H25.5V30ZM22 30V27H19V30H22ZM20.3359 33.9962L21.8359 34.9962L25.1641 30.0038L23.6641 29.0038L20.3359 33.9962ZM24.8416 35.1833L26.8416 34.1833L24.1584 28.8167L22.1584 29.8167L24.8416 35.1833ZM28.5 31.5V30H22.5V31.5H28.5ZM25.5 27H22V33H25.5V27ZM19 30V31.5H25V30H19Z" fill="#020B2A" mask="url(#path-5-inside-1_4_209)"/>
</svg>
