<svg width="20" height="20" viewBox="0 0 20 20" fill="none" xmlns="http://www.w3.org/2000/svg">
<g clip-path="url(#clip0_1053_18428)">
<path d="M4.16663 14.1667C4.16663 14.6087 4.34222 15.0326 4.65478 15.3452C4.96734 15.6577 5.39127 15.8333 5.83329 15.8333C6.27532 15.8333 6.69924 15.6577 7.0118 15.3452C7.32436 15.0326 7.49996 14.6087 7.49996 14.1667C7.49996 13.7246 7.32436 13.3007 7.0118 12.9882C6.69924 12.6756 6.27532 12.5 5.83329 12.5C5.39127 12.5 4.96734 12.6756 4.65478 12.9882C4.34222 13.3007 4.16663 13.7246 4.16663 14.1667Z" stroke="#0050A8" stroke-width="1.5" stroke-linecap="round" stroke-linejoin="round"/>
<path d="M12.5 14.1667C12.5 14.6087 12.6756 15.0326 12.9882 15.3452C13.3007 15.6577 13.7246 15.8333 14.1667 15.8333C14.6087 15.8333 15.0326 15.6577 15.3452 15.3452C15.6577 15.0326 15.8333 14.6087 15.8333 14.1667C15.8333 13.7246 15.6577 13.3007 15.3452 12.9882C15.0326 12.6756 14.6087 12.5 14.1667 12.5C13.7246 12.5 13.3007 12.6756 12.9882 12.9882C12.6756 13.3007 12.5 13.7246 12.5 14.1667Z" stroke="#0050A8" stroke-width="1.5" stroke-linecap="round" stroke-linejoin="round"/>
<path d="M4.16667 14.167H2.5V5.00033C2.5 4.77931 2.5878 4.56735 2.74408 4.41107C2.90036 4.25479 3.11232 4.16699 3.33333 4.16699H10.8333V14.167M7.5 14.167H12.5M15.8333 14.167H17.5V9.16699M17.5 9.16699H10.8333M17.5 9.16699L15 5.00033H10.8333" stroke="#0050A8" stroke-width="1.5" stroke-linecap="round" stroke-linejoin="round"/>
</g>
<defs>
<clipPath id="clip0_1053_18428">
<rect width="20" height="20" fill="white"/>
</clipPath>
</defs>
</svg>
